<svg width="31" height="30" viewBox="0 0 31 30" fill="none" xmlns="http://www.w3.org/2000/svg">
<path d="M18.0888 2.42126C16.9302 0.442433 14.0698 0.442435 12.9112 2.42126L10.2226 7.01275C9.80904 7.7191 9.12478 8.22578 8.32849 8.41532L3.12444 9.65407C0.949782 10.1717 0.0848147 12.8005 1.52722 14.5083L5.11131 18.7518C5.62484 19.3598 5.87573 20.147 5.80876 20.94L5.34294 26.4565C5.15183 28.7197 7.44751 30.3662 9.52996 29.4595L14.3023 27.3815C15.0661 27.0489 15.9339 27.0489 16.6977 27.3815L21.47 29.4595C23.5525 30.3662 25.8482 28.7197 25.6571 26.4565L25.1912 20.94C25.1243 20.147 25.3752 19.3598 25.8887 18.7518L29.4728 14.5083C30.9152 12.8005 30.0502 10.1717 27.8756 9.65408L22.6715 8.41533C21.8752 8.22578 21.191 7.7191 20.7774 7.01275L18.0888 2.42126Z" fill="#FF624B"/>
</svg>
